<mxfile host="app.diagrams.net" modified="2023-10-31T08:08:03.885Z" agent="Mozilla/5.0 (Macintosh; Intel Mac OS X 10_15_7) AppleWebKit/537.36 (KHTML, like Gecko) Chrome/118.0.0.0 Safari/537.36" version="22.0.8" etag="UrvBCAtH8nJCzjdcHwuw" type="github">
  <diagram name="第 1 页" id="aBky8CG3L3Q5i7M--kZO">
    <mxGraphModel>
      <root>
        <mxCell id="0" />
        <mxCell id="1" parent="0" />
      </root>
    </mxGraphModel>
  </diagram>
</mxfile>
